GRF
version=1
nRows=58
nColumns=10
inDegrees=no
endheader
time	1_ground_force_vx	1_ground_force_vy	1_ground_force_vz	1_ground_force_px	1_ground_force_py	1_ground_force_pz	1_ground_torque_x	1_ground_torque_y	1_ground_torque_z
      3.16500000	      1.84161287	    762.81436818	      4.02306577	      0.37125103	      0.00000000	      0.20040513	     -0.00000000	      0.75426676	     -0.00000000
      3.16600000	      1.88510392	    762.59257985	      4.03223197	      0.37129255	      0.00000000	      0.20039834	     -0.00000000	      0.76661447	      0.00000000
      3.16700000	      1.90898534	    762.28786204	      4.05874567	      0.37134875	      0.00000000	      0.20038970	      0.00000000	      0.77473943	      0.00000000
      3.16800000	      1.90235113	    761.99992612	      4.09238016	      0.37140355	      0.00000000	      0.20038130	      0.00000000	      0.78014730	      0.00000000
      3.16900000	      1.87191842	    761.79711350	      4.11785926	      0.37144139	      0.00000000	      0.20037459	      0.00000000	      0.78387149	      0.00000000
      3.17000000	      1.83953487	    761.72122859	      4.12925155	      0.37146549	      0.00000000	      0.20037817	      0.00000000	      0.78416713	      0.00000000
      3.17100000	      1.82011851	    761.72763828	      4.12514321	      0.37148217	      0.00000000	      0.20038998	      0.00000000	      0.78147495	      0.00000000
      3.17200000	      1.81036488	    761.78974084	      4.11159999	      0.37149015	      0.00000000	      0.20040056	     -0.00000000	      0.77544243	     -0.00000000
      3.17300000	      1.80731240	    761.87206433	      4.10715300	      0.37149159	      0.00000000	      0.20040686	     -0.00000000	      0.76906601	     -0.00000000
      3.17400000	      1.80036317	    761.87508564	      4.11917496	      0.37149051	      0.00000000	      0.20040618	     -0.00000000	      0.76779453	     -0.00000000
      3.17500000	      1.79065821	    761.78158463	      4.13259426	      0.37149324	      0.00000000	      0.20040530	     -0.00000000	      0.77047823	     -0.00000000
      3.17600000	      1.78639764	    761.64050036	      4.13320098	      0.37149913	      0.00000000	      0.20040388	      0.00000000	      0.77371555	      0.00000000
      3.17700000	      1.79598835	    761.52172230	      4.11865508	      0.37148648	      0.00000000	      0.20040070	     -0.00000000	      0.77680579	     -0.00000000
      3.17800000	      1.82411986	    761.45677919	      4.09240567	      0.37144565	      0.00000000	      0.20039454	     -0.00000000	      0.77911267	     -0.00000000
      3.17900000	      1.86947323	    761.40591108	      4.06913133	      0.37139205	      0.00000000	      0.20038848	     -0.00000000	      0.78172251	     -0.00000000
      3.18000000	      1.92272933	    761.34065651	      4.05521319	      0.37135052	      0.00000000	      0.20038885	     -0.00000000	      0.78268041	     -0.00000000
      3.18100000	      1.96977758	    761.27228815	      4.05443352	      0.37133685	      0.00000000	      0.20039417	     -0.00000000	      0.77764225	     -0.00000000
      3.18200000	      2.00131813	    761.19844669	      4.07309286	      0.37134376	      0.00000000	      0.20039429	     -0.00000000	      0.76762069	     -0.00000000
      3.18300000	      2.01903527	    761.08182143	      4.10573773	      0.37136227	      0.00000000	      0.20038645	     -0.00000000	      0.75824834	     -0.00000000
      3.18400000	      2.02996870	    760.90819635	      4.14311515	      0.37139416	      0.00000000	      0.20037403	     -0.00000000	      0.75492252	     -0.00000000
      3.18500000	      2.04387499	    760.71822799	      4.17331348	      0.37143709	      0.00000000	      0.20036020	     -0.00000000	      0.75795761	     -0.00000000
      3.18600000	      2.06708669	    760.57351451	      4.17982224	      0.37148094	      0.00000000	      0.20033824	     -0.00000000	      0.76229037	     -0.00000000
      3.18700000	      2.09692149	    760.52608390	      4.16688220	      0.37150559	      0.00000000	      0.20030663	     -0.00000000	      0.76396048	     -0.00000000
      3.18800000	      2.12644910	    760.55569124	      4.15556678	      0.37150276	      0.00000000	      0.20027751	     -0.00000000	      0.76013472	     -0.00000000
      3.18900000	      2.13588842	    760.57498327	      4.14935232	      0.37147866	      0.00000000	      0.20026964	      0.00000000	      0.75352083	      0.00000000
      3.19000000	      2.11847618	    760.55683592	      4.14116705	      0.37143887	      0.00000000	      0.20029248	      0.00000000	      0.74647183	      0.00000000
      3.19100000	      2.08828169	    760.50157556	      4.12687092	      0.37139165	      0.00000000	      0.20033524	      0.00000000	      0.73919435	      0.00000000
      3.19200000	      2.05780900	    760.40088098	      4.10419981	      0.37133688	      0.00000000	      0.20037601	      0.00000000	      0.73374869	      0.00000000
      3.19300000	      2.03959224	    760.24023670	      4.08644379	      0.37128651	      0.00000000	      0.20040436	      0.00000000	      0.73131003	      0.00000000
      3.19400000	      2.03660192	    760.02062645	      4.07878704	      0.37125612	      0.00000000	      0.20042389	      0.00000000	      0.73081039	      0.00000000
      3.19500000	      2.04295948	    759.77634375	      4.07263259	      0.37125947	      0.00000000	      0.20043751	      0.00000000	      0.73040436	      0.00000000
      3.19600000	      2.06200484	    759.58749804	      4.07972787	      0.37129817	      0.00000000	      0.20044758	     -0.00000000	      0.72680652	     -0.00000000
      3.19700000	      2.08418879	    759.44058941	      4.10371328	      0.37135859	      0.00000000	      0.20045176	     -0.00000000	      0.72273868	     -0.00000000
      3.19800000	      2.09681201	    759.26471747	      4.13860597	      0.37142381	      0.00000000	      0.20045054	     -0.00000000	      0.72472392	     -0.00000000
      3.19900000	      2.09439655	    759.05144518	      4.17382894	      0.37146660	      0.00000000	      0.20045087	     -0.00000000	      0.73457762	     -0.00000000
      3.20000000	      2.06649013	    758.84307710	      4.18441649	      0.37145818	      0.00000000	      0.20044482	     -0.00000000	      0.74726062	     -0.00000000
      3.20100000	      2.03078508	    758.68443730	      4.16729802	      0.37140352	      0.00000000	      0.20042458	     -0.00000000	      0.75474881	     -0.00000000
      3.20200000	      2.01218473	    758.59376553	      4.14295589	      0.37133414	      0.00000000	      0.20039377	     -0.00000000	      0.75445344	     -0.00000000
      3.20300000	      2.02092856	    758.54352254	      4.13246902	      0.37130065	      0.00000000	      0.20035804	     -0.00000000	      0.75058097	     -0.00000000
      3.20400000	      2.05731264	    758.53295225	      4.13724195	      0.37132227	      0.00000000	      0.20033390	     -0.00000000	      0.74747074	     -0.00000000
      3.20500000	      2.09662153	    758.54231032	      4.13488459	      0.37137475	      0.00000000	      0.20032778	     -0.00000000	      0.74427946	     -0.00000000
      3.20600000	      2.10978628	    758.50617126	      4.10900790	      0.37142895	      0.00000000	      0.20033337	      0.00000000	      0.73834944	     -0.00000000
      3.20700000	      2.10131389	    758.43359920	      4.06730062	      0.37146238	      0.00000000	      0.20034495	      0.00000000	      0.72828843	     -0.00000000
      3.20800000	      2.09760319	    758.36582579	      4.03973968	      0.37147502	      0.00000000	      0.20036035	      0.00000000	      0.71644528	     -0.00000000
      3.20900000	      2.12352758	    758.34269532	      4.04445575	      0.37147648	      0.00000000	      0.20037683	      0.00000000	      0.70577047	     -0.00000000
      3.21000000	      2.17796054	    758.38119002	      4.07373952	      0.37146862	      0.00000000	      0.20039050	      0.00000000	      0.69766645	     -0.00000000
      3.21100000	      2.23454612	    758.45002598	      4.11408064	      0.37145083	      0.00000000	      0.20039712	      0.00000000	      0.69350668	      0.00000000
      3.21200000	      2.27391557	    758.54747568	      4.14376365	      0.37142186	      0.00000000	      0.20039337	      0.00000000	      0.69299062	      0.00000000
      3.21300000	      2.29961426	    758.69433363	      4.15926132	      0.37139993	      0.00000000	      0.20038965	      0.00000000	      0.69561333	      0.00000000
      3.21400000	      2.32092298	    758.78441450	      4.17567843	      0.37140506	      0.00000000	      0.20039547	      0.00000000	      0.70200728	     -0.00000000
      3.21500000	      2.33114163	    758.70411763	      4.19233090	      0.37144179	      0.00000000	      0.20040655	     -0.00000000	      0.71117172	     -0.00000000
      3.21600000	      2.32628765	    758.45638227	      4.21141953	      0.37149095	      0.00000000	      0.20042538	     -0.00000000	      0.72043186	     -0.00000000
      3.21700000	      2.31312447	    758.12770689	      4.22775923	      0.37151841	      0.00000000	      0.20044945	     -0.00000000	      0.72539389	     -0.00000000
      3.21800000	      2.30076971	    757.82754283	      4.23251327	      0.37151806	      0.00000000	      0.20047289	     -0.00000000	      0.72606272	     -0.00000000
      3.21900000	      2.29647898	    757.66162691	      4.22742892	      0.37149983	      0.00000000	      0.20049099	     -0.00000000	      0.72683370	     -0.00000000
      3.22000000	      2.30548034	    757.61872512	      4.21621046	      0.37148331	      0.00000000	      0.20048869	     -0.00000000	      0.72911906	     -0.00000000
      3.22100000	      2.32615973	    757.69475273	      4.20942721	      0.37148375	      0.00000000	      0.20046683	     -0.00000000	      0.73347466	     -0.00000000
      3.22200000	      2.35490980	    757.84251892	      4.21640170	      0.37148876	      0.00000000	      0.20043361	     -0.00000000	      0.73825241	     -0.00000000
